<svg id="Layer_1" data-name="Layer 1" xmlns="http://www.w3.org/2000/svg" viewBox="0 0 25.7071 4.34857"><defs><style>.cls-1{fill:#f73131;stroke:#e54848;stroke-width:0.5px;}</style></defs><path class="cls-1" d="M60.95438,10.174l.04669.04669.04668-.04669,2.68441-3.05789,2.61438,2.96452.04668.04669.04669-.04669.1634-.1634L66.65,9.87059l-.04668-.04669L63.77885,6.626l-.04669-.04669-.04668.04669L61.00107,9.68385,58.29332,6.626l-.04669-.04669L58.2,6.626,55.51554,9.68385,52.83113,6.626l-.04668-.04669-.04669.04669L50.05335,9.68385,47.3456,6.626l-.04668-.04669-.04669.04669-2.6844,3.05789-2.591-2.96452-.04669-.04669-.04668.04669-.18674.1634L41.65,6.92941l.04669.04669L44.52114,10.174l.04669.04669.04668-.04669,2.68441-3.05789L50.00667,10.174l.04668.04669L50.1,10.174l2.68441-3.05789,2.6844,3.05789.04669.04669.04668-.04669,2.68441-3.05789Z" transform="translate(-41.29644 -6.22572)"/></svg>